HIERARCHY
ROOT Hips
{
    OFFSET 0.000000 0.000000 0.000000
    CHANNELS 6 Xposition Yposition Zposition Zrotation Xrotation Yrotation
    JOINT Spine
    {
        OFFSET -0.000000 7.755141 0.000000
        CHANNELS 3 Zrotation Xrotation Yrotation
        JOINT Spine1
        {
            OFFSET -0.000000 20.093737 0.000000
            CHANNELS 3 Zrotation Xrotation Yrotation
            JOINT Neck
            {
                OFFSET -0.000000 21.985235 0.000000
                CHANNELS 3 Zrotation Xrotation Yrotation
                JOINT Head
                {
                    OFFSET -0.000000 14.659108 1.891498
                    CHANNELS 3 Zrotation Xrotation Yrotation
                    End Site
                    {
                        OFFSET -0.000000 18.914978 0.000000
                    }
                }
            }
            JOINT LeftShoulder
            {
                OFFSET 3.789246 18.853123 -0.208244
                CHANNELS 3 Zrotation Xrotation Yrotation
                JOINT LeftArm
                {
                    OFFSET 9.468541 0.000000 0.000000
                    CHANNELS 3 Zrotation Xrotation Yrotation
                    JOINT LeftForeArm
                    {
                        OFFSET 31.465202 0.000000 0.000000
                        CHANNELS 3 Zrotation Xrotation Yrotation
                        JOINT LeftHand
                        {
                            OFFSET 26.964474 0.000000 0.000000
                            CHANNELS 3 Zrotation Xrotation Yrotation
                            End Site
                            {
                                OFFSET 14.186234 0.000000 0.000000
                            }
                        }
                    }
                }
            }
            JOINT RightShoulder
            {
                OFFSET -3.772747 18.853123 -0.208244
                CHANNELS 3 Zrotation Xrotation Yrotation
                JOINT RightArm
                {
                    OFFSET -9.468541 0.000000 0.000000
                    CHANNELS 3 Zrotation Xrotation Yrotation
                    JOINT RightForeArm
                    {
                        OFFSET -31.465202 0.000000 0.000000
                        CHANNELS 3 Zrotation Xrotation Yrotation
                        JOINT RightHand
                        {
                            OFFSET -26.964474 0.000000 0.000000
                            CHANNELS 3 Zrotation Xrotation Yrotation
                            End Site
                            {
                                OFFSET -14.186234 0.000000 0.000000
                            }
                        }
                    }
                }
            }
        }
    }
    JOINT LeftUpLeg
    {
        OFFSET 9.457489 0.000000 0.000000
        CHANNELS 3 Zrotation Xrotation Yrotation
        JOINT LeftLeg
        {
            OFFSET -0.000000 -40.941395 0.000000
            CHANNELS 3 Zrotation Xrotation Yrotation
            JOINT LeftFoot
            {
                OFFSET -0.000000 -37.782906 0.000000
                CHANNELS 3 Zrotation Xrotation Yrotation
                JOINT LeftToeBase
                {
                    OFFSET -0.000000 -6.147367 14.186234
                    CHANNELS 3 Zrotation Xrotation Yrotation
                    End Site
                    {
                        OFFSET -0.000000 0.000000 3.782995
                    }
                }
            }
        }
    }
    JOINT RightUpLeg
    {
        OFFSET -9.457489 0.000000 0.000000
        CHANNELS 3 Zrotation Xrotation Yrotation
        JOINT RightLeg
        {
            OFFSET -0.000000 -40.941395 0.000000
            CHANNELS 3 Zrotation Xrotation Yrotation
            JOINT RightFoot
            {
                OFFSET -0.000000 -37.782906 0.000000
                CHANNELS 3 Zrotation Xrotation Yrotation
                JOINT RightToeBase
                {
                    OFFSET -0.000000 -6.147367 14.186234
                    CHANNELS 3 Zrotation Xrotation Yrotation
                    End Site
                    {
                        OFFSET -0.000000 0.000000 3.782995
                    }
                }
            }
        }
    }
}
MOTION
Frames:    5
Frame Time:    0.010000
46.848515    89.285286    60.233845    -1.688240    -1.281352    1.225335    -1.947263    -9.090393    0.752121    1.875109    3.593122    0.244266    -0.004867    12.983014    -0.724692    2.215901    4.403246    -1.119272    -2.222042    4.306723    -0.081082    -72.117439    47.240631    -5.254308    9.160131    -14.053343    -10.878480    -31.206587    -14.301036    4.043103    -1.294612    7.702182    -7.300467    60.258781    77.151085    14.665408    -21.192949    -24.954901    13.227456    36.327244    -21.061291    5.314214    3.393424    5.043336    1.983253    -2.117097    4.217283    1.056411    3.671472    -9.486494    18.962290    0.000000    0.000000    0.000000    -2.862461    3.983059    1.758270    2.527253    4.336457    1.366341    3.016654    -8.363687    -12.077275    0.000000    0.000000    0.000000    
46.843472    89.285583    60.242558    -1.693692    -1.300282    1.206689    -1.979507    -9.052650    0.690721    1.925750    3.573555    0.223294    0.023433    13.055779    -0.787111    2.185715    4.303502    -1.169793    -2.206259    4.315651    -0.128912    -72.216362    47.183121    -5.173116    9.213140    -14.098830    -10.907361    -31.186352    -14.347289    4.075491    -1.310507    7.662363    -7.383063    61.827465    75.625137    12.582430    -20.739370    -24.804272    15.161439    36.245533    -20.738689    4.943244    3.404815    5.072907    1.994875    -2.125404    4.215418    1.072368    3.677582    -9.496943    18.948130    0.000000    0.000000    0.000000    -2.857736    4.014124    1.757129    2.594149    4.272711    1.188995    2.888862    -8.268548    -11.933992    0.000000    0.000000    0.000000    
46.837357    89.288559    60.254257    -1.707757    -1.319709    1.194083    -2.079996    -9.011893    0.689406    2.093545    3.566820    0.220139    0.094500    13.025613    -0.900047    2.090593    4.301812    -1.253027    -2.165545    4.348118    -0.276994    -72.257324    46.393761    -5.123073    8.855001    -13.753411    -11.261809    -31.032087    -14.067407    4.314259    -1.199495    7.622514    -7.827796    61.979172    75.261421    11.908975    -21.113308    -25.095396    16.304432    36.952965    -20.774986    4.882424    3.425632    5.105131    1.994449    -2.135546    4.204329    1.099268    3.678757    -9.475249    18.933641    0.000000    0.000000    0.000000    -2.849460    4.055666    1.817092    2.651062    4.179526    1.106465    2.837607    -8.173321    -11.961354    0.000000    0.000000    0.000000    
46.832283    89.284409    60.267414    -1.709371    -1.335507    1.179830    -2.230513    -9.071534    0.659146    2.334257    3.728161    0.203793    0.091533    13.626222    -1.353643    2.144366    3.334265    -1.713215    -2.208541    4.263931    -0.415333    -72.324165    46.049526    -5.036936    8.702226    -13.632871    -11.432209    -30.962605    -13.969126    4.399106    -1.426885    7.544452    -7.915166    63.682789    73.349953    9.621278    -20.554932    -25.024038    18.878872    37.280827    -20.418993    4.557853    3.436247    5.149242    1.973292    -2.146011    4.192311    0.910459    3.722391    -9.501686    19.144484    0.000000    0.000000    0.000000    -2.838792    4.073863    1.829354    2.610948    4.234150    1.174345    2.876795    -8.258477    -11.984525    0.000000    0.000000    0.000000    
46.836090    89.281059    60.267700    -1.696969    -1.315763    1.151247    -2.275078    -9.093069    0.590288    2.424507    3.732807    0.179114    0.071797    13.527523    -1.335868    2.102432    3.463200    -1.695602    -2.255194    4.243060    -0.517098    -72.362694    45.807510    -4.918787    8.562060    -13.589319    -11.561429    -30.903353    -13.942643    4.455605    -1.449797    7.690565    -7.961363    64.219894    72.017830    8.546904    -20.592817    -25.191824    20.794825    37.488007    -20.283041    4.426877    3.411913    5.135412    1.996229    -2.137853    4.183934    0.951568    3.272111    -9.866196    19.053118    0.000000    0.000000    0.000000    -2.859139    4.038690    1.821319    2.609728    4.258662    1.249154    2.901829    -8.292986    -12.055125    0.000000    0.000000    0.000000    
